<svg xmlns="http://www.w3.org/2000/svg" width="68" height="49" viewBox="0 0 68 49">
  <metadata><?xpacket begin="﻿" id="W5M0MpCehiHzreSzNTczkc9d"?>
<x:xmpmeta xmlns:x="adobe:ns:meta/" x:xmptk="Adobe XMP Core 5.6-c138 79.159824, 2016/09/14-01:09:01        ">
   <rdf:RDF xmlns:rdf="http://www.w3.org/1999/02/22-rdf-syntax-ns#">
      <rdf:Description rdf:about=""/>
   </rdf:RDF>
</x:xmpmeta>
                                                                                                    
                                                                                                    
                                                                                                    
                                                                                                    
                                                                                                    
                                                                                                    
                                                                                                    
                                                                                                    
                                                                                                    
                                                                                                    
                                                                                                    
                                                                                                    
                                                                                                    
                                                                                                    
                                                                                                    
                                                                                                    
                                                                                                    
                                                                                                    
                                                                                                    
                                                                                                    
                           
<?xpacket end="w"?></metadata>
<defs>
    <style>
      .cls-1 {
        fill: #333;
        fill-rule: evenodd;
      }
    </style>
  </defs>
  <path id="cloud" class="cls-1" d="M542.067,828.347a19.016,19.016,0,0,0-36.253-6.2,9.412,9.412,0,0,0-2.874-.491,9.576,9.576,0,0,0-9.563,9.587,9.466,9.466,0,0,0,.523,2.992A13.811,13.811,0,0,0,500.815,860v0h38.248v0A15.972,15.972,0,0,0,542.067,828.347Zm-3,27.39v0H500.815a9.588,9.588,0,0,1-9.563-9.589,9.481,9.481,0,0,1,4.79-8.239c2.913-1.679,3.113-2.012,1.89-5.024a5.214,5.214,0,0,1,5.008-6.974,7.221,7.221,0,0,1,2.874.491c2.438,0.974,2.7.041,3.856-2.47a14.769,14.769,0,0,1,28.166,4.821c0.264,3.05.264,3.05,3.435,3.778A11.709,11.709,0,0,1,539.063,855.737Z" transform="translate(-487 -811)"/>
</svg>
