<svg xmlns="http://www.w3.org/2000/svg" width="59" height="59" viewBox="0 0 59 59">
  <metadata><?xpacket begin="﻿" id="W5M0MpCehiHzreSzNTczkc9d"?>
<x:xmpmeta xmlns:x="adobe:ns:meta/" x:xmptk="Adobe XMP Core 5.6-c138 79.159824, 2016/09/14-01:09:01        ">
   <rdf:RDF xmlns:rdf="http://www.w3.org/1999/02/22-rdf-syntax-ns#">
      <rdf:Description rdf:about=""/>
   </rdf:RDF>
</x:xmpmeta>
                                                                                                    
                                                                                                    
                                                                                                    
                                                                                                    
                                                                                                    
                                                                                                    
                                                                                                    
                                                                                                    
                                                                                                    
                                                                                                    
                                                                                                    
                                                                                                    
                                                                                                    
                                                                                                    
                                                                                                    
                                                                                                    
                                                                                                    
                                                                                                    
                                                                                                    
                                                                                                    
                           
<?xpacket end="w"?></metadata>
<defs>
    <style>
      .cls-1 {
        fill: #a3c83a;
        fill-rule: evenodd;
      }
    </style>
  </defs>
  <path id="lab" class="cls-1" d="M829.132,813.882a4.608,4.608,0,0,0-6.52,0l-2.6,2.6a4.613,4.613,0,0,0-.67,5.682L794.308,832.2a5.53,5.53,0,0,0-1.673,8.99l23.453,23.194a5.492,5.492,0,0,0,3.77,1.617c0.032,0,.11,0,0.141,0a5.611,5.611,0,0,0,1.126-.115,5.5,5.5,0,0,0,4.013-3.371l9.849-24.662a4.608,4.608,0,0,0,5.782-.6l2.6-2.6a4.608,4.608,0,0,0,.01-6.529Zm-7.418,47.264a1.848,1.848,0,0,1-1.339,1.129,1.888,1.888,0,0,1-.422.037,1.833,1.833,0,0,1-1.258-.538l-23.467-23.209a1.843,1.843,0,0,1,.564-2.992l11.463-4.592c7.725,2.568,15.45.094,23.176,8.338Zm19.053-29.108-2.606,2.605a0.917,0.917,0,0,1-1.3,0l-3.259-3.257L830.957,838l0.222-.558c-5.55-5.54-11.191-6.239-16.28-6.864-1.635-.2-3.22-0.41-4.779-0.747l15.656-6.271-3.162-3.162a0.92,0.92,0,0,1,0-1.3l2.606-2.609a0.922,0.922,0,0,1,1.3,0l14.242,14.245A0.917,0.917,0,0,1,840.767,832.038Zm-19.345,13.681a4.61,4.61,0,1,0-4.61-4.61A4.614,4.614,0,0,0,821.422,845.719Zm0-7.375a2.766,2.766,0,1,1-2.766,2.765A2.765,2.765,0,0,1,821.422,838.344ZM845.391,807A4.609,4.609,0,1,0,850,811.609,4.614,4.614,0,0,0,845.391,807Zm0,7.375a2.766,2.766,0,1,1,2.765-2.766A2.766,2.766,0,0,1,845.391,814.375ZM805.75,838.344a3.688,3.688,0,1,0,3.688-3.688A3.692,3.692,0,0,0,805.75,838.344Zm3.688-1.844a1.844,1.844,0,1,1-1.844,1.844A1.843,1.843,0,0,1,809.438,836.5Zm5.531,14.75a1.844,1.844,0,1,0-1.844-1.844A1.843,1.843,0,0,0,814.969,851.25Zm29.5-31.344a1.844,1.844,0,1,0,1.843,1.844A1.844,1.844,0,0,0,844.469,819.906Z" transform="translate(-791 -807)"/>
</svg>
