<svg xmlns="http://www.w3.org/2000/svg" width="68" height="44" viewBox="0 0 68 44">
  <metadata><?xpacket begin="﻿" id="W5M0MpCehiHzreSzNTczkc9d"?>
<x:xmpmeta xmlns:x="adobe:ns:meta/" x:xmptk="Adobe XMP Core 5.6-c138 79.159824, 2016/09/14-01:09:01        ">
   <rdf:RDF xmlns:rdf="http://www.w3.org/1999/02/22-rdf-syntax-ns#">
      <rdf:Description rdf:about=""/>
   </rdf:RDF>
</x:xmpmeta>
                                                                                                    
                                                                                                    
                                                                                                    
                                                                                                    
                                                                                                    
                                                                                                    
                                                                                                    
                                                                                                    
                                                                                                    
                                                                                                    
                                                                                                    
                                                                                                    
                                                                                                    
                                                                                                    
                                                                                                    
                                                                                                    
                                                                                                    
                                                                                                    
                                                                                                    
                                                                                                    
                           
<?xpacket end="w"?></metadata>
<defs>
    <style>
      .cls-1 {
        fill: #333;
        fill-rule: evenodd;
      }
    </style>
  </defs>
  <path id="mail" class="cls-1" d="M1146.5,813h-51a8.444,8.444,0,0,0-8.5,8.38v27.237a8.444,8.444,0,0,0,8.5,8.381h51a8.444,8.444,0,0,0,8.5-8.381V821.381A8.444,8.444,0,0,0,1146.5,813Zm-55.25,11,14.87,11-14.87,11V824Zm59.5,24.618a4.226,4.226,0,0,1-4.25,4.191h-51a4.226,4.226,0,0,1-4.25-4.191l16.64-12.308,9.29,6.866a6.437,6.437,0,0,0,7.64,0l9.29-6.866,16.64,12.308h0Zm0-2.619-14.87-11,14.87-11v22Zm-27.2-4.5a4.295,4.295,0,0,1-5.1,0l-8.79-6.5-1.77-1.309-16.64-12.308v0a4.228,4.228,0,0,1,4.25-4.19h51a4.228,4.228,0,0,1,4.25,4.19Z" transform="translate(-1087 -813)"/>
</svg>
