<svg xmlns="http://www.w3.org/2000/svg" width="65" height="65" viewBox="0 0 65 65">
  <metadata><?xpacket begin="﻿" id="W5M0MpCehiHzreSzNTczkc9d"?>
<x:xmpmeta xmlns:x="adobe:ns:meta/" x:xmptk="Adobe XMP Core 5.6-c138 79.159824, 2016/09/14-01:09:01        ">
   <rdf:RDF xmlns:rdf="http://www.w3.org/1999/02/22-rdf-syntax-ns#">
      <rdf:Description rdf:about=""/>
   </rdf:RDF>
</x:xmpmeta>
                                                                                                    
                                                                                                    
                                                                                                    
                                                                                                    
                                                                                                    
                                                                                                    
                                                                                                    
                                                                                                    
                                                                                                    
                                                                                                    
                                                                                                    
                                                                                                    
                                                                                                    
                                                                                                    
                                                                                                    
                                                                                                    
                                                                                                    
                                                                                                    
                                                                                                    
                                                                                                    
                           
<?xpacket end="w"?></metadata>
<defs>
    <style>
      .cls-1 {
        fill: #333;
        fill-rule: evenodd;
      }
    </style>
  </defs>
  <path id="world" class="cls-1" d="M223.5,802A32.5,32.5,0,1,0,256,834.5,32.5,32.5,0,0,0,223.5,802Zm28.253,31.451H239.181a41.739,41.739,0,0,0-2.406-13.141,34.384,34.384,0,0,0,7.832-4.608A28.154,28.154,0,0,1,251.753,833.451Zm-29.412,29.3a33.431,33.431,0,0,1-8.547-11.045,32.461,32.461,0,0,1,8.658-1.423v12.474Zm2.316-56.494a33.858,33.858,0,0,1,9.364,12.844,32.42,32.42,0,0,1-9.473,1.72V806.246Zm3.491,0.356a28.217,28.217,0,0,1,15.022,7.578,32.136,32.136,0,0,1-7.186,4.19A36.867,36.867,0,0,0,228.148,806.609Zm-5.7-.363v14.571a32.42,32.42,0,0,1-9.473-1.72,33.858,33.858,0,0,1,9.364-12.844Zm-11.436,12.131a32.114,32.114,0,0,1-7.186-4.19,28.217,28.217,0,0,1,15.022-7.578A36.867,36.867,0,0,0,211.016,818.377Zm1.173,2.653a34.4,34.4,0,0,0,10.263,1.884v10.537H209.916A39.667,39.667,0,0,1,212.189,821.03Zm10.263,14.518v12.634a34.425,34.425,0,0,0-9.518,1.611,39.354,39.354,0,0,1-3.018-14.245h12.536Zm-3.6,26.842a28.176,28.176,0,0,1-13.723-6.4,31.932,31.932,0,0,1,6.683-3.565A36.3,36.3,0,0,0,218.852,862.39Zm5.7,0.363V850.279a32.461,32.461,0,0,1,8.658,1.423,33.431,33.431,0,0,1-8.547,11.045Zm10.64-10.326a31.932,31.932,0,0,1,6.683,3.565,28.176,28.176,0,0,1-13.723,6.4A36.3,36.3,0,0,0,235.188,852.427Zm-1.122-2.634a34.425,34.425,0,0,0-9.518-1.611V835.548h12.536A39.354,39.354,0,0,1,234.066,849.793Zm-9.518-16.342V822.914a34.4,34.4,0,0,0,10.263-1.884,39.667,39.667,0,0,1,2.273,12.421H224.548ZM202.393,815.7a34.384,34.384,0,0,0,7.832,4.608,41.739,41.739,0,0,0-2.406,13.141H195.247A28.143,28.143,0,0,1,202.393,815.7Zm-7.146,19.846h12.572a41.367,41.367,0,0,0,3.151,14.964,34.16,34.16,0,0,0-7.418,4.048A28.208,28.208,0,0,1,195.247,835.548Zm48.2,19.012a34.144,34.144,0,0,0-7.419-4.048,41.347,41.347,0,0,0,3.152-14.964h12.572A28.208,28.208,0,0,1,243.448,854.56Z" transform="translate(-191 -802)"/>
</svg>
